<svg width="21" height="22" viewBox="0 0 21 22" fill="none" xmlns="http://www.w3.org/2000/svg">
<path fill-rule="evenodd" clip-rule="evenodd" d="M8.95744 1.7804C9.13735 1.54751 9.36049 1.35789 9.61248 1.22378C9.86448 1.08967 10.1397 1.01404 10.4205 1.00178C10.7012 0.989511 10.9812 1.04088 11.2424 1.15257C11.5036 1.26426 11.7403 1.43379 11.937 1.65023L12.0456 1.7804L15.9983 6.89823H18.999C19.2099 6.89775 19.4186 6.94536 19.6113 7.03794C19.8041 7.13053 19.9765 7.266 20.1173 7.43548C20.2582 7.60497 20.3642 7.80465 20.4286 8.02144C20.493 8.23823 20.5141 8.46725 20.4908 8.69349L20.3983 9.5244L20.2978 10.3271L20.2153 10.9281L20.1198 11.5735L20.0113 12.2515L19.8886 12.9544L19.7519 13.6714C19.6795 14.033 19.6018 14.3942 19.5187 14.7551C19.2962 15.7075 19.0168 16.6434 18.6823 17.557L18.4602 18.1427L18.245 18.6721L18.042 19.1429L17.9475 19.3533L17.6972 19.8848C17.3755 20.5465 16.7683 20.937 16.1259 20.9934L15.9651 20.9999H5.02788C4.67644 21.0028 4.33089 20.9026 4.02813 20.71C3.72537 20.5174 3.47677 20.2397 3.30889 19.9065L3.07567 19.4184L2.89472 19.017L2.79922 18.7946L2.59817 18.3076C2.13907 17.1573 1.76658 15.9689 1.48434 14.754C1.42977 14.5181 1.37749 14.2816 1.32752 14.0445L1.18477 13.3416L1.05711 12.6539L0.944517 11.9889L0.843991 11.3522L0.756533 10.7513L0.682144 10.1948L0.591671 9.4539L0.525324 8.85078L0.508234 8.68481C0.48744 8.4717 0.506126 8.25625 0.563205 8.05101C0.620284 7.84576 0.714617 7.65481 0.840716 7.48927C0.966814 7.32372 1.12216 7.18689 1.29772 7.08673C1.47328 6.98656 1.66554 6.92507 1.86332 6.90583L2.00004 6.89823H5.00476L8.95744 1.7804ZM8.4518 12.0204C8.38379 11.7645 8.23093 11.5445 8.02232 11.4023C7.81372 11.2601 7.56393 11.2056 7.32053 11.2493C7.07714 11.293 6.85713 11.4318 6.70241 11.6392C6.54768 11.8466 6.46905 12.1081 6.48149 12.374L6.49456 12.4999L6.99718 15.7541L7.02232 15.8778C7.09032 16.1337 7.24318 16.3537 7.45179 16.4959C7.6604 16.6381 7.91018 16.6925 8.15358 16.6489C8.39698 16.6052 8.61698 16.4664 8.77171 16.259C8.92643 16.0516 9.00506 15.7901 8.99263 15.5241L8.97956 15.3983L8.47693 12.1441L8.4518 12.0204ZM13.6822 11.2524C13.4392 11.2087 13.1898 11.2627 12.9813 11.4043C12.7729 11.5459 12.6198 11.7651 12.5512 12.0204L12.5261 12.1441L12.0235 15.3983C11.9815 15.6712 12.0378 15.9511 12.1808 16.1808C12.3237 16.4104 12.5426 16.5724 12.7926 16.6337C13.0427 16.6949 13.3049 16.6508 13.5258 16.5103C13.7466 16.3697 13.9094 16.1435 13.9807 15.8778L14.0059 15.7541L14.5085 12.4999C14.5521 12.2162 14.4895 11.9255 14.3346 11.6916C14.1797 11.4577 13.945 11.2997 13.6822 11.2524ZM10.5015 4.16887L7.62145 6.89823H13.3816L10.5015 4.16887Z" fill="currentColor" stroke="black" stroke-linecap="square" stroke-linejoin="round"/>
</svg>
