<svg width="21" height="18" viewBox="0 0 21 18" fill="none" xmlns="http://www.w3.org/2000/svg">
<path d="M15.0564 1.09283C16.1334 1.09341 17.186 1.38173 18.0813 1.92134C18.9765 2.46095 19.6741 3.22762 20.086 4.12447C20.4978 5.02131 20.6054 6.00807 20.3952 6.96002C20.185 7.91197 19.6663 8.78639 18.9048 9.47275L18.2574 10.0616L17.3982 10.8305L10.5527 17L3.70715 10.8314L2.84796 10.0625L2.20057 9.47365C1.67246 9.02262 1.24994 8.48082 0.957957 7.88023C0.66597 7.27964 0.510427 6.63242 0.500506 5.97677C0.490586 5.32111 0.62649 4.67031 0.900198 4.06277C1.17391 3.45522 1.57987 2.90324 2.09414 2.4394C2.60841 1.97557 3.22056 1.60926 3.89447 1.36211C4.56838 1.11496 5.29039 0.991976 6.01789 1.00041C6.7454 1.00884 7.46367 1.14851 8.1303 1.4112C8.79694 1.67388 9.39843 2.05425 9.8993 2.52985L10.5527 3.1187L11.2071 2.52985C12.228 1.61039 13.6121 1.09384 15.0554 1.09373" fill="currentColor"/>
<path d="M15.0564 1.09283C16.1334 1.09341 17.186 1.38173 18.0813 1.92134C18.9765 2.46095 19.6741 3.22762 20.086 4.12447C20.4978 5.02131 20.6054 6.00807 20.3952 6.96002C20.185 7.91197 19.6663 8.78639 18.9048 9.47275L18.2574 10.0616L17.3982 10.8305L10.5527 17L3.70715 10.8314L2.84796 10.0625L2.20057 9.47365C1.67246 9.02262 1.24994 8.48082 0.957957 7.88023C0.66597 7.27964 0.510427 6.63242 0.500506 5.97677C0.490586 5.32111 0.62649 4.67031 0.900198 4.06277C1.17391 3.45522 1.57987 2.90324 2.09414 2.4394C2.60841 1.97557 3.22056 1.60926 3.89447 1.36211C4.56838 1.11496 5.29039 0.991976 6.01789 1.00041C6.7454 1.00884 7.46367 1.14851 8.1303 1.4112C8.79694 1.67388 9.39843 2.05425 9.8993 2.52985L10.5527 3.1187L11.2071 2.52985C12.228 1.61039 13.6121 1.09384 15.0554 1.09373" stroke="black"/>
</svg>
