<svg width="104" height="89" viewBox="0 0 104 89" fill="none" xmlns="http://www.w3.org/2000/svg">
<path fill-rule="evenodd" clip-rule="evenodd" d="M93.2274 0.608876C94.5061 0.0697489 95.9057 -0.116193 97.2804 0.0704033C98.6552 0.256999 99.955 0.809313 101.044 1.66986C102.134 2.5304 102.973 3.66771 103.475 4.96342C103.976 6.25912 104.122 7.66586 103.897 9.0372L92.1614 80.3462C91.023 87.2246 83.4891 91.1692 77.1918 87.743C71.9242 84.8765 64.1004 80.4602 57.0632 75.8521C53.5446 73.5454 42.7662 66.159 44.0909 60.903C45.2292 56.4089 63.3398 39.5212 73.6887 29.4808C77.7506 25.5362 75.8982 23.2606 71.1015 26.8891C59.1899 35.8979 40.0651 49.5978 33.742 53.4543C28.1639 56.8547 25.2559 57.4352 21.7787 56.8547C15.4348 55.7973 9.55144 54.1593 4.74956 52.1636C-1.73919 49.4682 -1.42355 40.5319 4.74439 37.9298L93.2274 0.608876Z" fill="currentColor"/>
</svg>
