<svg width="20" height="21" viewBox="0 0 20 21" fill="none" xmlns="http://www.w3.org/2000/svg">
<path fill-rule="evenodd" clip-rule="evenodd" d="M17.8739 1.61653C18.1191 1.51335 18.3874 1.47776 18.651 1.51347C18.9145 1.54919 19.1637 1.65489 19.3726 1.81959C19.5815 1.98429 19.7424 2.20196 19.8385 2.44995C19.9347 2.69793 19.9627 2.96717 19.9195 3.22963L17.6695 16.8774C17.4513 18.1939 16.0068 18.9489 14.7995 18.2931C13.7896 17.7445 12.2896 16.8993 10.9404 16.0173C10.2658 15.5759 8.19929 14.1622 8.45326 13.1562C8.67152 12.2961 12.1437 9.06395 14.1279 7.14233C14.9066 6.38737 14.5515 5.95185 13.6318 6.6463C11.3481 8.3705 7.68144 10.9925 6.46913 11.7306C5.39969 12.3814 4.84215 12.4925 4.17548 12.3814C2.95921 12.179 1.83124 11.8655 0.910603 11.4836C-0.333445 10.9677 -0.272929 9.25741 0.909611 8.75939L17.8739 1.61653Z" fill="currentColor"/>
</svg>
