<svg width="30" height="30" viewBox="0 0 30 30" fill="none" xmlns="http://www.w3.org/2000/svg">
<path d="M28.1707 16.7873C28.2464 17.0179 28.413 17.2097 28.6338 17.3207C28.8546 17.4317 29.1115 17.4527 29.3483 17.3792C29.8358 17.2258 30.1133 16.7142 29.9558 16.2319L29.955 16.2297C29.8883 16.0346 26.1313 5 14.9992 5C3.86934 5 0.111633 16.0346 0.0456289 16.2305L0.0448789 16.2319C-0.11263 16.7142 0.157385 17.2258 0.652413 17.3792C1.14744 17.5327 1.67247 17.2696 1.82998 16.7873C1.96424 16.3781 5.21192 6.82692 15 6.82692C24.788 6.82692 28.0357 16.3781 28.1707 16.7873ZM10.1247 17.4231C10.1247 16.1633 10.6383 14.9551 11.5526 14.0643C12.4669 13.1735 13.707 12.6731 15 12.6731C16.293 12.6731 17.533 13.1735 18.4473 14.0643C19.3616 14.9551 19.8752 16.1633 19.8752 17.4231C19.8752 18.6829 19.3616 19.891 18.4473 20.7818C17.533 21.6726 16.293 22.1731 15 22.1731C13.707 22.1731 12.4669 21.6726 11.5526 20.7818C10.6383 19.891 10.1247 18.6829 10.1247 17.4231ZM15 10.8462C13.2096 10.8462 11.4927 11.5391 10.2267 12.7725C8.96078 14.0059 8.24958 15.6788 8.24958 17.4231C8.24958 19.1674 8.96078 20.8403 10.2267 22.0737C11.4927 23.3071 13.2096 24 15 24C16.7903 24 18.5073 23.3071 19.7732 22.0737C21.0391 20.8403 21.7503 19.1674 21.7503 17.4231C21.7503 15.6788 21.0391 14.0059 19.7732 12.7725C18.5073 11.5391 16.7903 10.8462 15 10.8462Z" fill="currentColor"/>
</svg>
