<svg width="30" height="30" viewBox="0 0 30 30" fill="none" xmlns="http://www.w3.org/2000/svg">
<path d="M2.31087 14.1426H6.02722C6.22298 14.1426 6.38509 14.2046 6.51356 14.3287C6.64101 14.4527 6.70473 14.6095 6.70473 14.799C6.70473 14.9886 6.64101 15.1459 6.51356 15.2709C6.38611 15.396 6.22451 15.4585 6.02875 15.4585H1.2342C0.884482 15.4585 0.591354 15.3434 0.354812 15.1131C0.118271 14.8819 0 14.5961 0 14.2557V9.59065C0 9.40012 0.0637235 9.24283 0.19117 9.11879C0.318617 8.99474 0.47971 8.93272 0.674449 8.93272C0.869188 8.93272 1.03079 8.99474 1.15926 9.11879C1.28772 9.24283 1.35196 9.40012 1.35196 9.59065V13.2078L5.86358 8.81661C6.00224 8.6886 6.16385 8.62459 6.34839 8.62459C6.53293 8.62459 6.69097 8.68909 6.82249 8.8181C6.95402 8.94711 7.01978 9.10092 7.01978 9.27955C7.01978 9.45817 6.95402 9.61497 6.82249 9.74993L2.31087 14.1426ZM14.529 2.25067L10.0173 6.64186C9.87867 6.76987 9.71707 6.83388 9.53252 6.83388C9.34696 6.83388 9.18893 6.76987 9.05842 6.64186C8.92588 6.51384 8.8596 6.36003 8.8596 6.18041C8.8596 6.00079 8.92588 5.8435 9.05842 5.70854L13.57 1.31736H9.85216C9.6564 1.31736 9.4948 1.25533 9.36735 1.13129C9.23991 1.00724 9.17618 0.849955 9.17618 0.659423C9.17618 0.46889 9.23991 0.311601 9.36735 0.187556C9.4948 0.063511 9.6564 0.000992359 9.85216 0H14.6452C14.9959 0 15.2896 0.115114 15.5261 0.345341C15.7626 0.57656 15.8809 0.86236 15.8809 1.20274V5.86931C15.8809 6.05885 15.8172 6.21614 15.6897 6.34117C15.5623 6.46522 15.4012 6.52724 15.2065 6.52724C15.0117 6.52724 14.8496 6.46522 14.7201 6.34117C14.5906 6.21713 14.5269 6.05984 14.529 5.86931V2.25067ZM19.0253 30C18.5114 30 18.0281 29.9077 17.5754 29.7231C17.1228 29.5386 16.7088 29.2637 16.3336 28.8985L9.48817 22.2551C9.2812 22.0716 9.18587 21.8443 9.20218 21.5734C9.21849 21.3025 9.32963 21.0742 9.53558 20.8887C9.76703 20.6822 10.0296 20.5493 10.3232 20.4897C10.6158 20.4302 10.912 20.4361 11.2118 20.5076L15.471 21.5302V9.16047C15.471 8.95008 15.5445 8.77345 15.6913 8.63055C15.8381 8.48765 16.0196 8.4162 16.2357 8.4162C16.4519 8.4162 16.6334 8.48765 16.7802 8.63055C16.927 8.77345 17.0004 8.95008 17.0004 9.16047V21.9574C17.0004 22.3573 16.8357 22.6779 16.5064 22.919C16.1761 23.1592 15.8182 23.2267 15.4328 23.1215L11.4381 22.0646L17.4256 27.8654C17.6315 28.0659 17.8752 28.2237 18.1566 28.3388C18.438 28.4539 18.7281 28.5115 19.0268 28.5115H24.6472C25.7229 28.5115 26.6293 28.1532 27.3664 27.4367C28.1026 26.7203 28.4706 25.838 28.4706 24.7901V18.836C28.4706 18.6256 28.544 18.4489 28.6909 18.306C28.8377 18.1631 29.0192 18.0917 29.2353 18.0917C29.4515 18.0917 29.633 18.1631 29.7798 18.306C29.9266 18.4489 30 18.6256 30 18.836V24.7901C30 26.237 29.4795 27.467 28.4385 28.4802C27.3965 29.4934 26.1343 30 24.6518 30H19.0253ZM20.5577 13.6261C20.7749 13.6261 20.9569 13.6975 21.1037 13.8404C21.2505 13.9833 21.3234 14.16 21.3224 14.3703V19.5802C21.3224 19.7916 21.249 19.9682 21.1022 20.1102C20.9553 20.2521 20.7733 20.3235 20.5562 20.3245C20.339 20.3255 20.1575 20.254 20.0117 20.1102C19.8659 19.9663 19.793 19.7896 19.793 19.5802V14.3703C19.793 14.16 19.8664 13.9833 20.0133 13.8404C20.1601 13.6975 20.3416 13.6261 20.5577 13.6261ZM24.9118 15.1146C25.128 15.1146 25.3094 15.1861 25.4563 15.329C25.6031 15.4719 25.676 15.6485 25.675 15.8589V19.5802C25.675 19.7916 25.6016 19.9682 25.4547 20.1102C25.3079 20.2531 25.1259 20.3245 24.9087 20.3245C24.6916 20.3245 24.5101 20.2531 24.3643 20.1102C24.2185 19.9673 24.1456 19.7906 24.1456 19.5802V15.8589C24.1456 15.6485 24.219 15.4719 24.3658 15.329C24.5126 15.1861 24.6946 15.1146 24.9118 15.1146Z" fill="white"/>
</svg>
