<svg width="20" height="21" viewBox="0 0 20 21" fill="none" xmlns="http://www.w3.org/2000/svg">
<g clip-path="url(#clip0_615_5466)">
<path d="M16.8307 3.41005C15.9421 2.48415 14.8837 1.75002 13.7174 1.25041C12.551 0.750812 11.3 0.495737 10.0371 0.500054C4.74563 0.500054 0.432999 4.95004 0.432999 10.41C0.432999 12.16 0.8788 13.86 1.71225 15.36L0.355469 20.5L5.44341 19.12C6.84865 19.91 8.42833 20.33 10.0371 20.33C15.3285 20.33 19.6412 15.88 19.6412 10.42C19.6412 7.77003 18.643 5.28004 16.8307 3.41005ZM10.0371 18.65C8.60278 18.65 7.19754 18.25 5.96674 17.5L5.676 17.32L2.65231 18.14L3.45669 15.1L3.26286 14.79C2.4658 13.4771 2.04265 11.9593 2.04176 10.41C2.04176 5.87004 5.62754 2.17005 10.0274 2.17005C12.1595 2.17005 14.1656 3.03005 15.6677 4.59004C16.4117 5.3539 17.0012 6.26258 17.4021 7.26336C17.8031 8.26415 18.0074 9.33712 18.0034 10.42C18.0227 14.96 14.4369 18.65 10.0371 18.65ZM14.4176 12.49C14.1753 12.37 12.9929 11.77 12.7797 11.68C12.5568 11.6 12.4018 11.56 12.237 11.8C12.0723 12.05 11.6168 12.61 11.4811 12.77C11.3454 12.94 11.2 12.96 10.9578 12.83C10.7155 12.71 9.94018 12.44 9.02919 11.6C8.31204 10.94 7.83716 10.13 7.69179 9.88003C7.55611 9.63003 7.67241 9.50003 7.7984 9.37003C7.905 9.26003 8.04068 9.08003 8.15698 8.94003C8.27327 8.80003 8.32173 8.69003 8.39926 8.53003C8.47679 8.36003 8.43802 8.22003 8.37988 8.10003C8.32173 7.98003 7.83716 6.76004 7.64334 6.26004C7.44951 5.78004 7.24599 5.84004 7.10062 5.83004H6.63544C6.47069 5.83004 6.21871 5.89004 5.99581 6.14004C5.7826 6.39004 5.16236 6.99004 5.16236 8.21003C5.16236 9.43003 6.02489 10.61 6.14118 10.77C6.25748 10.94 7.83716 13.44 10.2406 14.51C10.8124 14.77 11.2582 14.92 11.6071 15.03C12.1789 15.22 12.7022 15.19 13.1189 15.13C13.5841 15.06 14.5436 14.53 14.7374 13.95C14.9409 13.37 14.9409 12.88 14.8731 12.77C14.8052 12.66 14.6598 12.61 14.4176 12.49Z" fill="currentColor"/>
</g>
<defs>
<clipPath id="clip0_615_5466">
<rect width="20" height="20" fill="white" transform="translate(0 0.5)"/>
</clipPath>
</defs>
</svg>
