<svg width="265" height="40" viewBox="0 0 265 40" fill="none" xmlns="http://www.w3.org/2000/svg">
<path d="M7.91199 16.4398L22.426 0.994767H32.6959L17.1863 16.5445L33.5867 39.0052H23.3692L11.6322 22.3037L7.91199 26.1257V39.0052H0V0.994767H7.91199V16.4398Z" fill="#4C4C4C"/>
<path d="M41.2272 0.994767V25.7068C41.2272 27.0332 41.4019 28.185 41.7512 29.1623C42.1005 30.1047 42.5721 30.8901 43.1659 31.5183C43.7947 32.1117 44.5108 32.5654 45.3142 32.8796C46.1526 33.1588 47.0433 33.2984 47.9865 33.2984C50.7111 33.2984 52.6673 32.6702 53.855 31.4136C55.0426 30.1571 55.6365 28.377 55.6365 26.0733V0.994767H63.5484V25.6021C63.5484 28.1152 63.1991 30.2792 62.5005 32.0942C61.8019 33.8743 60.7889 35.3578 59.4615 36.5445C58.1341 37.7312 56.5097 38.6038 54.5885 39.1623C52.7022 39.7208 50.5539 40 48.1437 40C46.5368 40 44.8601 39.808 43.1135 39.4241C41.3669 39.0401 39.7601 38.3421 38.293 37.3298C36.8608 36.3176 35.6731 34.904 34.7299 33.089C33.7868 31.274 33.3152 28.9529 33.3152 26.1257V0.994767H41.2272Z" fill="#4C4C4C"/>
<path d="M74.5937 16.4398L89.1077 0.994767H99.3776L83.868 16.5445L100.268 39.0052H90.0509L78.3139 22.3037L74.5937 26.1257V39.0052H66.6817V0.994767H74.5937V16.4398Z" fill="#4C4C4C"/>
<path d="M107.909 0.994767V25.7068C107.909 27.0332 108.084 28.185 108.433 29.1623C108.782 30.1047 109.254 30.8901 109.848 31.5183C110.476 32.1117 111.192 32.5654 111.996 32.8796C112.834 33.1588 113.725 33.2984 114.668 33.2984C117.393 33.2984 119.349 32.6702 120.537 31.4136C121.724 30.1571 122.318 28.377 122.318 26.0733V0.994767H130.23V25.6021C130.23 28.1152 129.881 30.2792 129.182 32.0942C128.484 33.8743 127.471 35.3578 126.143 36.5445C124.816 37.7312 123.191 38.6038 121.27 39.1623C119.384 39.7208 117.236 40 114.825 40C113.218 40 111.542 39.808 109.795 39.4241C108.049 39.0401 106.442 38.3421 104.975 37.3298C103.542 36.3176 102.355 34.904 101.412 33.089C100.468 31.274 99.9969 28.9529 99.9969 26.1257V0.994767H107.909Z" fill="#4C4C4C"/>
<path d="M139.337 27.2775C139.337 27.801 139.424 28.4293 139.599 29.1623C139.808 29.8604 140.192 30.541 140.751 31.2042C141.345 31.8325 142.166 32.3735 143.214 32.8272C144.262 33.2461 145.659 33.4555 147.406 33.4555C148.349 33.4555 149.292 33.3857 150.235 33.2461C151.178 33.1065 152.034 32.8621 152.803 32.5131C153.571 32.1291 154.183 31.623 154.637 30.9948C155.126 30.3665 155.37 29.5462 155.37 28.534C155.37 27.801 155.196 27.1902 154.846 26.7016C154.497 26.2129 154.008 25.7941 153.379 25.445C152.785 25.096 152.069 24.7993 151.231 24.555C150.392 24.3106 149.467 24.0663 148.454 23.822L140.804 21.9372C138.079 21.274 135.983 20.1222 134.516 18.4817C133.049 16.8412 132.315 14.5724 132.315 11.6754C132.315 10.6283 132.49 9.44154 132.839 8.11518C133.224 6.75393 133.94 5.47993 134.988 4.29319C136.071 3.07155 137.555 2.05934 139.441 1.25655C141.363 0.418849 143.86 0 146.934 0C149.834 0 152.226 0.418849 154.113 1.25655C156.034 2.09424 157.553 3.14136 158.671 4.39791C159.789 5.65445 160.575 6.99826 161.029 8.42932C161.483 9.86038 161.71 11.1518 161.71 12.3037H154.113C154.043 11.8848 153.921 11.3438 153.746 10.6806C153.606 10.0175 153.274 9.38918 152.75 8.79581C152.226 8.16754 151.458 7.64398 150.445 7.22513C149.432 6.77138 148.07 6.54451 146.358 6.54451C145.589 6.54451 144.803 6.63176 144 6.80628C143.232 6.9459 142.515 7.19023 141.852 7.53927C141.223 7.88831 140.699 8.35951 140.28 8.95288C139.896 9.54625 139.703 10.2618 139.703 11.0995C139.703 11.8325 139.843 12.4433 140.123 12.9319C140.402 13.4206 140.734 13.8045 141.118 14.0838C141.537 14.363 141.974 14.5724 142.428 14.712C142.917 14.8517 143.354 14.9738 143.738 15.0785L153.012 17.3298C154.305 17.644 155.545 18.0454 156.733 18.534C157.955 18.9878 159.021 19.5986 159.929 20.3665C160.837 21.1344 161.571 22.0942 162.129 23.2461C162.688 24.3979 162.968 25.829 162.968 27.5393C162.968 29.459 162.671 31.0995 162.077 32.4607C161.518 33.822 160.767 34.9564 159.824 35.8639C158.916 36.7714 157.885 37.5044 156.733 38.0628C155.58 38.6213 154.445 39.0401 153.327 39.3194C152.244 39.5986 151.213 39.7731 150.235 39.8429C149.292 39.9476 148.541 40 147.982 40C144.524 40 141.729 39.5637 139.599 38.6911C137.468 37.7836 135.826 36.6841 134.673 35.3927C133.521 34.1012 132.735 32.7225 132.315 31.2565C131.931 29.7906 131.739 28.4642 131.739 27.2775H139.337Z" fill="#4C4C4C"/>
<path d="M172.339 15.3927H187.168V0.994767H195.08V39.0052H187.168V21.9372H172.339V39.0052H164.427V0.994767H172.339V15.3927Z" fill="#4C4C4C"/>
<path d="M206.115 16.4398L220.629 0.994767H230.899L215.389 16.5445L231.79 39.0052H221.572L209.835 22.3037L206.115 26.1257V39.0052H198.203V0.994767H206.115V16.4398Z" fill="#4C4C4C"/>
<path d="M251.639 0.994767L265 39.0052H256.407L253.944 31.1518H239.954L237.282 39.0052H228.951L242.469 0.994767H251.639ZM242.05 24.6073H252.215L247.028 9.58115H246.923L242.05 24.6073Z" fill="#4C4C4C"/>
</svg>
