<svg width="264" height="40" viewBox="0 0 264 40" fill="none" xmlns="http://www.w3.org/2000/svg">
<path d="M7.88213 16.4398L22.3414 0.994767H32.5725L17.1215 16.5445L33.4599 39.0052H23.281L11.5883 22.3037L7.88213 26.1257V39.0052H0V0.994767H7.88213V16.4398Z" fill="black"/>
<path d="M41.0716 0.994767V25.7068C41.0716 27.0332 41.2456 28.185 41.5936 29.1623C41.9416 30.1047 42.4114 30.8901 43.003 31.5183C43.6294 32.1117 44.3428 32.5654 45.1432 32.8796C45.9784 33.1588 46.8658 33.2984 47.8054 33.2984C50.5197 33.2984 52.4685 32.6702 53.6517 31.4136C54.8349 30.1571 55.4265 28.377 55.4265 26.0733V0.994767H63.3086V25.6021C63.3086 28.1152 62.9606 30.2792 62.2646 32.0942C61.5686 33.8743 60.5595 35.3578 59.2371 36.5445C57.9147 37.7312 56.2965 38.6038 54.3825 39.1623C52.5033 39.7208 50.3631 40 47.962 40C46.3612 40 44.6908 39.808 42.9508 39.4241C41.2108 39.0401 39.61 38.3421 38.1485 37.3298C36.7217 36.3176 35.5385 34.904 34.5989 33.089C33.6593 31.274 33.1895 28.9529 33.1895 26.1257V0.994767H41.0716Z" fill="black"/>
<path d="M74.3122 16.4398L88.7714 0.994767H99.0026L83.5515 16.5445L99.8899 39.0052H89.711L78.0183 22.3037L74.3122 26.1257V39.0052H66.43V0.994767H74.3122V16.4398Z" fill="black"/>
<path d="M107.502 0.994767V25.7068C107.502 27.0332 107.676 28.185 108.024 29.1623C108.372 30.1047 108.841 30.8901 109.433 31.5183C110.059 32.1117 110.773 32.5654 111.573 32.8796C112.408 33.1588 113.296 33.2984 114.235 33.2984C116.95 33.2984 118.899 32.6702 120.082 31.4136C121.265 30.1571 121.857 28.377 121.857 26.0733V0.994767H129.739V25.6021C129.739 28.1152 129.391 30.2792 128.695 32.0942C127.999 33.8743 126.99 35.3578 125.667 36.5445C124.345 37.7312 122.727 38.6038 120.813 39.1623C118.933 39.7208 116.793 40 114.392 40C112.791 40 111.121 39.808 109.381 39.4241C107.641 39.0401 106.04 38.3421 104.578 37.3298C103.152 36.3176 101.969 34.904 101.029 33.089C100.089 31.274 99.6195 28.9529 99.6195 26.1257V0.994767H107.502Z" fill="black"/>
<path d="M138.811 27.2775C138.811 27.801 138.898 28.4293 139.072 29.1623C139.281 29.8604 139.663 30.541 140.22 31.2042C140.812 31.8325 141.63 32.3735 142.674 32.8272C143.718 33.2461 145.11 33.4555 146.85 33.4555C147.789 33.4555 148.729 33.3857 149.668 33.2461C150.608 33.1065 151.461 32.8621 152.226 32.5131C152.992 32.1291 153.601 31.623 154.053 30.9948C154.54 30.3665 154.784 29.5462 154.784 28.534C154.784 27.801 154.61 27.1902 154.262 26.7016C153.914 26.2129 153.427 25.7941 152.8 25.445C152.209 25.096 151.495 24.7993 150.66 24.555C149.825 24.3106 148.903 24.0663 147.894 23.822L140.272 21.9372C137.558 21.274 135.47 20.1222 134.008 18.4817C132.547 16.8412 131.816 14.5724 131.816 11.6754C131.816 10.6283 131.99 9.44154 132.338 8.11518C132.721 6.75393 133.434 5.47993 134.478 4.29319C135.557 3.07155 137.036 2.05934 138.915 1.25655C140.829 0.418849 143.317 0 146.38 0C149.268 0 151.652 0.418849 153.531 1.25655C155.445 2.09424 156.959 3.14136 158.072 4.39791C159.186 5.65445 159.969 6.99826 160.421 8.42932C160.874 9.86038 161.1 11.1518 161.1 12.3037H153.531C153.462 11.8848 153.34 11.3438 153.166 10.6806C153.027 10.0175 152.696 9.38918 152.174 8.79581C151.652 8.16754 150.886 7.64398 149.877 7.22513C148.868 6.77138 147.511 6.54451 145.806 6.54451C145.04 6.54451 144.257 6.63176 143.457 6.80628C142.691 6.9459 141.978 7.19023 141.316 7.53927C140.69 7.88831 140.168 8.35951 139.75 8.95288C139.368 9.54625 139.176 10.2618 139.176 11.0995C139.176 11.8325 139.315 12.4433 139.594 12.9319C139.872 13.4206 140.203 13.8045 140.586 14.0838C141.003 14.363 141.438 14.5724 141.891 14.712C142.378 14.8517 142.813 14.9738 143.196 15.0785L152.435 17.3298C153.723 17.644 154.958 18.0454 156.141 18.534C157.359 18.9878 158.42 19.5986 159.325 20.3665C160.23 21.1344 160.961 22.0942 161.518 23.2461C162.074 24.3979 162.353 25.829 162.353 27.5393C162.353 29.459 162.057 31.0995 161.465 32.4607C160.909 33.822 160.16 34.9564 159.221 35.8639C158.316 36.7714 157.289 37.5044 156.141 38.0628C154.993 38.6213 153.862 39.0401 152.748 39.3194C151.669 39.5986 150.643 39.7731 149.668 39.8429C148.729 39.9476 147.981 40 147.424 40C143.979 40 141.195 39.5637 139.072 38.6911C136.949 37.7836 135.313 36.6841 134.165 35.3927C133.017 34.1012 132.234 32.7225 131.816 31.2565C131.433 29.7906 131.242 28.4642 131.242 27.2775H138.811Z" fill="black"/>
<path d="M171.689 15.3927H186.461V0.994767H194.343V39.0052H186.461V21.9372H171.689V39.0052H163.807V0.994767H171.689V15.3927Z" fill="black"/>
<path d="M205.337 16.4398L219.796 0.994767H230.027L214.576 16.5445L230.915 39.0052H220.736L209.043 22.3037L205.337 26.1257V39.0052H197.455V0.994767H205.337V16.4398Z" fill="black"/>
<path d="M250.689 0.994767L264 39.0052H255.439L252.986 31.1518H239.049L236.386 39.0052H228.087L241.554 0.994767H250.689ZM241.137 24.6073H251.263L246.096 9.58115H245.991L241.137 24.6073Z" fill="black"/>
</svg>
