<svg width="264" height="40" fill="none" xmlns="http://www.w3.org/2000/svg"><path d="M7.882 16.44 22.342.995h10.23l-15.45 15.55 16.338 22.46H23.28L11.588 22.304l-3.706 3.822v12.88H0V.994h7.882V16.44Z" fill="#000"/><path d="M41.072.995v24.712c0 1.326.174 2.478.522 3.455.348.943.817 1.728 1.409 2.356a6.58 6.58 0 0 0 2.14 1.362c.835.279 1.723.418 2.662.418 2.715 0 4.663-.628 5.847-1.884 1.183-1.257 1.774-3.037 1.774-5.34V.993h7.883v24.608c0 2.513-.348 4.677-1.044 6.492-.696 1.78-1.706 3.264-3.028 4.45-1.322 1.187-2.94 2.06-4.855 2.618-1.879.559-4.019.838-6.42.838-1.6 0-3.271-.192-5.011-.576a13.442 13.442 0 0 1-4.803-2.094c-1.426-1.012-2.61-2.426-3.55-4.241-.939-1.815-1.408-4.136-1.408-6.963V.995h7.882ZM74.312 16.44 88.772.995h10.23l-15.45 15.55 16.338 22.46H89.71L78.018 22.304l-3.706 3.822v12.88H66.43V.994h7.882V16.44Z" fill="#000"/><path d="M107.502.995v24.712c0 1.326.174 2.478.522 3.455.348.943.817 1.728 1.409 2.356a6.58 6.58 0 0 0 2.14 1.362c.835.279 1.723.418 2.662.418 2.715 0 4.664-.628 5.847-1.884 1.183-1.257 1.775-3.037 1.775-5.34V.993h7.882v24.608c0 2.513-.348 4.677-1.044 6.492-.696 1.78-1.705 3.264-3.028 4.45-1.322 1.187-2.94 2.06-4.854 2.618-1.88.559-4.02.838-6.421.838-1.601 0-3.271-.192-5.011-.576a13.45 13.45 0 0 1-4.803-2.094c-1.426-1.012-2.609-2.426-3.549-4.241-.94-1.815-1.41-4.136-1.41-6.963V.995h7.883ZM138.811 27.277c0 .524.087 1.152.261 1.885.209.698.591 1.379 1.148 2.042.592.628 1.41 1.17 2.454 1.623 1.044.42 2.436.629 4.176.629.939 0 1.879-.07 2.818-.21a9.497 9.497 0 0 0 2.558-.733c.766-.384 1.375-.89 1.827-1.518.487-.629.731-1.449.731-2.461 0-.733-.174-1.344-.522-1.832-.348-.49-.835-.908-1.462-1.257-.591-.349-1.305-.646-2.14-.89a60.992 60.992 0 0 0-2.766-.733l-7.622-1.885c-2.714-.663-4.802-1.815-6.264-3.455-1.461-1.64-2.192-3.91-2.192-6.807 0-1.047.174-2.233.522-3.56.383-1.361 1.096-2.635 2.14-3.822 1.079-1.221 2.558-2.234 4.437-3.036C140.829.419 143.317 0 146.38 0c2.888 0 5.272.419 7.151 1.257 1.914.837 3.428 1.884 4.541 3.14 1.114 1.257 1.897 2.601 2.349 4.032.453 1.431.679 2.723.679 3.875h-7.569c-.069-.42-.191-.96-.365-1.623-.139-.663-.47-1.292-.992-1.885-.522-.628-1.288-1.152-2.297-1.57-1.009-.455-2.366-.681-4.071-.681-.766 0-1.549.087-2.349.261a7.407 7.407 0 0 0-2.141.733 4.685 4.685 0 0 0-1.566 1.414c-.382.593-.574 1.309-.574 2.147 0 .732.139 1.343.418 1.832.278.489.609.873.992 1.152.417.279.852.488 1.305.628.487.14.922.262 1.305.367l9.239 2.25c1.288.315 2.523.716 3.706 1.205 1.218.454 2.279 1.065 3.184 1.832.905.768 1.636 1.728 2.193 2.88.556 1.152.835 2.583.835 4.293 0 1.92-.296 3.56-.888 4.922-.556 1.361-1.305 2.495-2.244 3.403a11.304 11.304 0 0 1-3.08 2.199 17.489 17.489 0 0 1-3.393 1.256 17.23 17.23 0 0 1-3.08.524c-.939.105-1.687.157-2.244.157-3.445 0-6.229-.436-8.352-1.309-2.123-.907-3.759-2.007-4.907-3.298-1.148-1.292-1.931-2.67-2.349-4.137-.383-1.465-.574-2.792-.574-3.979h7.569ZM171.689 15.393h14.772V.995h7.882v38.01h-7.882V21.937h-14.772v17.068h-7.882V.995h7.882v14.398ZM205.337 16.44 219.796.995h10.231l-15.451 15.55 16.339 22.46h-10.179l-11.693-16.701-3.706 3.822v12.88h-7.882V.994h7.882V16.44Z" fill="#000"/><path d="M250.689.995 264 39.005h-8.561l-2.453-7.853h-13.937l-2.663 7.853h-8.299L241.554.995h9.135Zm-9.552 23.612h10.126l-5.167-15.026h-.105l-4.854 15.026Z" fill="#000"/></svg>