<svg width="265" height="40" fill="none" xmlns="http://www.w3.org/2000/svg"><path d="M7.912 16.44 22.426.995h10.27l-15.51 15.55 16.4 22.46H23.37L11.632 22.304l-3.72 3.822v12.88H0V.994h7.912V16.44Z" fill="#4C4C4C"/><path d="M41.227.995v24.712c0 1.326.175 2.478.524 3.455.35.943.821 1.728 1.415 2.356a6.61 6.61 0 0 0 2.148 1.362c.839.279 1.73.418 2.672.418 2.725 0 4.681-.628 5.869-1.884 1.188-1.257 1.782-3.037 1.782-5.34V.993h7.911v24.608c0 2.513-.349 4.677-1.047 6.492-.7 1.78-1.712 3.264-3.04 4.45-1.327 1.187-2.951 2.06-4.872 2.618-1.887.559-4.035.838-6.445.838-1.607 0-3.284-.192-5.03-.576a13.52 13.52 0 0 1-4.821-2.094c-1.432-1.012-2.62-2.426-3.563-4.241-.943-1.815-1.415-4.136-1.415-6.963V.995h7.912ZM74.594 16.44 89.108.995h10.27l-15.51 15.55 16.4 22.46H90.051L78.314 22.304l-3.72 3.822v12.88h-7.912V.994h7.912V16.44Z" fill="#4C4C4C"/><path d="M107.909.995v24.712c0 1.326.175 2.478.524 3.455.349.943.821 1.728 1.415 2.356a6.593 6.593 0 0 0 2.148 1.362 8.4 8.4 0 0 0 2.672.418c2.725 0 4.681-.628 5.869-1.884 1.187-1.257 1.781-3.037 1.781-5.34V.993h7.912v24.608c0 2.513-.349 4.677-1.048 6.492-.698 1.78-1.711 3.264-3.039 4.45-1.327 1.187-2.952 2.06-4.873 2.618-1.886.559-4.034.838-6.445.838-1.607 0-3.283-.192-5.03-.576a13.52 13.52 0 0 1-4.82-2.094c-1.433-1.012-2.62-2.426-3.563-4.241-.944-1.815-1.415-4.136-1.415-6.963V.995h7.912ZM139.337 27.277c0 .524.087 1.152.262 1.885.209.698.593 1.379 1.152 2.042.594.628 1.415 1.17 2.463 1.623 1.048.42 2.445.629 4.192.629.943 0 1.886-.07 2.829-.21a9.58 9.58 0 0 0 2.568-.733c.768-.384 1.38-.89 1.834-1.518.489-.629.733-1.449.733-2.461 0-.733-.174-1.344-.524-1.832-.349-.49-.838-.908-1.467-1.257-.594-.349-1.31-.646-2.148-.89a61.674 61.674 0 0 0-2.777-.733l-7.65-1.885c-2.725-.663-4.821-1.815-6.288-3.455-1.467-1.64-2.201-3.91-2.201-6.807 0-1.047.175-2.233.524-3.56.385-1.361 1.101-2.635 2.149-3.822 1.083-1.221 2.567-2.234 4.453-3.036C141.363.419 143.86 0 146.934 0c2.9 0 5.292.419 7.179 1.257 1.921.837 3.44 1.884 4.558 3.14 1.118 1.257 1.904 2.601 2.358 4.032.454 1.431.681 2.723.681 3.875h-7.597c-.07-.42-.192-.96-.367-1.623-.14-.663-.472-1.292-.996-1.885-.524-.628-1.292-1.152-2.305-1.57-1.013-.455-2.375-.681-4.087-.681-.769 0-1.555.087-2.358.261a7.44 7.44 0 0 0-2.148.733 4.686 4.686 0 0 0-1.572 1.414c-.384.593-.577 1.309-.577 2.147 0 .732.14 1.343.42 1.832.279.489.611.873.995 1.152.419.279.856.488 1.31.628.489.14.926.262 1.31.367l9.274 2.25c1.293.315 2.533.716 3.721 1.205 1.222.454 2.288 1.065 3.196 1.832.908.768 1.642 1.728 2.2 2.88.559 1.152.839 2.583.839 4.293 0 1.92-.297 3.56-.891 4.922-.559 1.361-1.31 2.495-2.253 3.403a11.342 11.342 0 0 1-3.091 2.199 17.62 17.62 0 0 1-3.406 1.256c-1.083.28-2.114.454-3.092.524-.943.105-1.694.157-2.253.157-3.458 0-6.253-.436-8.383-1.309-2.131-.907-3.773-2.007-4.926-3.298-1.152-1.292-1.938-2.67-2.358-4.137-.384-1.465-.576-2.792-.576-3.979h7.598ZM172.339 15.393h14.829V.995h7.912v38.01h-7.912V21.937h-14.829v17.068h-7.912V.995h7.912v14.398ZM206.115 16.44 220.629.995h10.27l-15.51 15.55 16.401 22.46h-10.218l-11.737-16.701-3.72 3.822v12.88h-7.912V.994h7.912V16.44Z" fill="#4C4C4C"/><path d="M251.639.995 265 39.005h-8.593l-2.463-7.853h-13.99l-2.672 7.853h-8.331L242.469.995h9.17Zm-9.589 23.612h10.165l-5.187-15.026h-.105l-4.873 15.026Z" fill="#4C4C4C"/></svg>