<?xml version="1.0" encoding="utf-8"?><svg viewBox="0 0 120 89" xmlns="http://www.w3.org/2000/svg" xmlns:xlink="http://www.w3.org/1999/xlink"><style>:root>svg{display:none}:root>svg:target{display:block}</style><svg fill="none" viewBox="0 0 17 7" id="arrow-dropdown" xmlns="http://www.w3.org/2000/svg"><path d="m1 1 7.5 5L16 1" stroke="currentColor" stroke-width="2" stroke-linecap="round" stroke-linejoin="round"/></svg><svg fill="none" viewBox="0 0 16 22" id="arrow-up" xmlns="http://www.w3.org/2000/svg"><path d="M9.031.585a1.444 1.444 0 0 0-.477-.303 1.358 1.358 0 0 0-1.097 0c-.178.069-.34.172-.477.303L1.202 6.363a1.45 1.45 0 0 0 2.051 2.051l3.308-3.322v15.297a1.444 1.444 0 1 0 2.889 0V5.092l3.308 3.322a1.45 1.45 0 0 0 2.05-2.051L9.032.585Z" fill="currentColor"/></svg><svg fill="none" viewBox="0 0 21 22" id="basket" xmlns="http://www.w3.org/2000/svg"><path fill-rule="evenodd" clip-rule="evenodd" d="M8.957 1.78c.18-.232.403-.422.655-.556a1.879 1.879 0 0 1 1.63-.071c.262.111.498.28.695.497l.109.13 3.952 5.118H19c.21 0 .42.047.612.14.193.093.366.228.506.397.141.17.247.37.312.586.064.217.085.446.062.672l-.093.831-.1.803-.083.601-.095.645-.109.678-.122.703-.137.717c-.072.362-.15.723-.233 1.084a24.09 24.09 0 0 1-.837 2.802l-.222.586-.215.53-.203.47-.095.21-.25.532a1.94 1.94 0 0 1-1.571 1.108l-.16.007H5.027a1.832 1.832 0 0 1-1-.29 2.032 2.032 0 0 1-.72-.803l-.232-.489-.181-.401-.096-.222-.2-.487a24.614 24.614 0 0 1-1.115-3.554 37.048 37.048 0 0 1-.156-.71l-.143-.702-.128-.688-.112-.665-.101-.637-.087-.6-.075-.557-.09-.741-.067-.603-.017-.166a1.738 1.738 0 0 1 .055-.634 1.67 1.67 0 0 1 .278-.562c.126-.165.281-.302.457-.402.175-.1.368-.162.565-.181L2 6.898h3.005L8.957 1.78Zm-.505 10.24a1.08 1.08 0 0 0-.43-.618.945.945 0 0 0-.701-.153.993.993 0 0 0-.619.39 1.142 1.142 0 0 0-.22.735l.013.126.502 3.254.025.124c.068.256.221.476.43.618a.946.946 0 0 0 .702.153.993.993 0 0 0 .618-.39c.154-.207.233-.469.22-.735l-.012-.126-.503-3.254-.025-.124Zm5.23-.768a.945.945 0 0 0-.7.152 1.08 1.08 0 0 0-.43.616l-.026.124-.502 3.254c-.042.273.014.553.157.783.143.23.362.391.612.453.25.06.512.017.733-.124.22-.14.383-.367.455-.632l.025-.124.502-3.254a1.152 1.152 0 0 0-.173-.808.999.999 0 0 0-.653-.44Zm-3.18-7.083-2.88 2.73h5.76l-2.88-2.73Z" fill="currentColor" stroke="#000" stroke-linecap="square" stroke-linejoin="round"/></svg><svg fill="none" viewBox="0 0 24 24" id="bracket-gt" xmlns="http://www.w3.org/2000/svg"><path d="M8.4 1.2 6.72 3l8.88 9-8.88 9 1.68 1.8L19.2 12 8.4 1.2Z" fill="currentColor"/></svg><svg fill="none" viewBox="0 0 24 24" id="bracket-lt" xmlns="http://www.w3.org/2000/svg"><path d="m15.6 22.8 1.68-1.8-8.88-9 8.88-9-1.68-1.8L4.8 12l10.8 10.8Z" fill="currentColor"/></svg><svg fill="none" viewBox="0 0 15 16" id="cross" xmlns="http://www.w3.org/2000/svg"><path d="m11.574 4-4 4m0 0-4 4m4-4-4-4m4 4 4 4" stroke="currentColor" stroke-width="2"/></svg><svg fill="none" viewBox="0 0 120 17" id="dev" xmlns="http://www.w3.org/2000/svg"><path d="M3.052 8.098h5.539c.728 0 1.303-.167 1.725-.499.434-.345.651-.818.651-1.418s-.217-1.067-.651-1.4c-.422-.331-.997-.497-1.725-.497H2.573l1.476-1.668V16.09H.79V1.715h8.183c1.048 0 1.968.192 2.76.575.792.37 1.412.888 1.86 1.553.446.664.67 1.444.67 2.338 0 .882-.224 1.655-.67 2.319-.448.664-1.068 1.188-1.86 1.572-.792.37-1.712.555-2.76.555H3.052v-2.53Zm2.492 1.264h3.718l5.424 6.728h-3.814L5.544 9.362Zm15.576 7.015c-1.29 0-2.447-.236-3.47-.709-1.009-.486-1.807-1.163-2.395-2.032-.575-.868-.862-1.878-.862-3.028 0-1.137.274-2.134.824-2.99.562-.856 1.329-1.52 2.3-1.993.97-.485 2.076-.728 3.315-.728 1.265 0 2.351.281 3.258.843.908.55 1.604 1.329 2.09 2.338.498 1.01.747 2.198.747 3.565H16.96V9.516h8.241l-1.246.766c-.05-.638-.21-1.181-.479-1.629a2.649 2.649 0 0 0-1.054-1.035c-.447-.242-.971-.364-1.572-.364-.651 0-1.22.134-1.705.403a2.77 2.77 0 0 0-1.112 1.092c-.255.46-.383 1.003-.383 1.63 0 .753.166 1.398.498 1.935.332.537.818.945 1.457 1.227.638.28 1.411.421 2.319.421a9.23 9.23 0 0 0 2.472-.345 8.348 8.348 0 0 0 2.242-1.016v2.147c-.715.511-1.552.914-2.51 1.207-.946.281-1.949.422-3.01.422Zm8.484-.115c-.537 0-.984-.172-1.342-.517-.345-.345-.517-.78-.517-1.304s.172-.958.517-1.303c.358-.345.805-.517 1.342-.517.55 0 .997.172 1.342.517.357.345.536.78.536 1.303 0 .524-.179.959-.536 1.304-.345.345-.793.517-1.342.517Zm0-6.785c-.537 0-.984-.172-1.342-.517-.345-.345-.517-.78-.517-1.303 0-.524.172-.959.517-1.304.358-.345.805-.517 1.342-.517.55 0 .997.172 1.342.517.357.345.536.78.536 1.304s-.179.958-.536 1.303c-.345.345-.793.517-1.342.517Zm17.161 6.613-.46-3.987.517-1.456-.517-1.438.46-4.025h3.316l-.633 5.463.633 5.443h-3.316Zm.843-5.443c-.204 1.15-.581 2.159-1.13 3.028a5.772 5.772 0 0 1-2.051 1.993c-.818.473-1.738.71-2.76.71-1.06 0-2-.237-2.817-.71a5.1 5.1 0 0 1-1.917-2.012c-.447-.87-.67-1.872-.67-3.01 0-1.15.223-2.152.67-3.008a4.937 4.937 0 0 1 1.917-2.013c.817-.485 1.756-.728 2.817-.728 1.022 0 1.942.236 2.76.709.83.473 1.52 1.144 2.07 2.012.55.856.92 1.866 1.111 3.029Zm-8.107 0c0 .638.128 1.2.384 1.686a3.05 3.05 0 0 0 1.092 1.15c.46.268.99.403 1.59.403.601 0 1.163-.135 1.687-.403a4.688 4.688 0 0 0 1.419-1.15 5.467 5.467 0 0 0 .958-1.686 5.467 5.467 0 0 0-.958-1.687 4.336 4.336 0 0 0-1.419-1.15 3.513 3.513 0 0 0-1.686-.422c-.6 0-1.131.141-1.591.422-.46.268-.824.652-1.092 1.15-.256.486-.384 1.048-.384 1.687Zm24.239.996a4.778 4.778 0 0 1-1.092 2.473c-.588.715-1.348 1.27-2.28 1.667-.934.396-1.975.594-3.125.594-1.303 0-2.453-.236-3.45-.709-.984-.486-1.757-1.163-2.319-2.032-.55-.868-.824-1.865-.824-2.99 0-1.137.275-2.133.824-2.99.562-.868 1.335-1.545 2.32-2.03.996-.486 2.146-.73 3.45-.73 1.149 0 2.19.205 3.123.614.933.396 1.693.952 2.28 1.668A4.69 4.69 0 0 1 63.74 9.65h-3.2c-.166-.741-.55-1.31-1.15-1.706-.588-.409-1.304-.613-2.147-.613-.677 0-1.271.134-1.782.402a2.656 2.656 0 0 0-1.15 1.131c-.269.486-.403 1.08-.403 1.783 0 .69.134 1.284.403 1.782a2.79 2.79 0 0 0 1.15 1.13c.51.256 1.105.384 1.782.384.856 0 1.578-.21 2.166-.632.6-.422.977-.978 1.13-1.668h3.201ZM63.267 7.6V6.18l2.281-.747 1.36-3.125h1.84v2.875h4.83V7.6h-4.83v3.967c0 .844.173 1.438.518 1.783.358.332.971.498 1.84.498.55 0 1.035-.05 1.457-.153.421-.102.824-.25 1.207-.44v2.49c-.37.154-.862.294-1.476.422a8.47 8.47 0 0 1-1.897.211c-1.137 0-2.064-.179-2.779-.537-.703-.37-1.227-.881-1.572-1.533-.332-.651-.498-1.412-.498-2.28V7.599h-2.28ZM74.52 5.07l1.59.306 1.61-.307v11.02h-3.2V5.07Zm1.59-1.131c-.575 0-1.047-.147-1.418-.441-.358-.307-.537-.71-.537-1.208 0-.51.18-.913.537-1.207.37-.307.843-.46 1.418-.46.588 0 1.06.153 1.419.46.357.294.536.696.536 1.207 0 .499-.179.901-.536 1.208-.358.294-.83.44-1.419.44Zm9.602 10.675-1.15-.02 4.12-9.41h3.412L86.88 16.09h-3.623L78.066 5.184h3.526l4.12 9.43Z" fill="currentColor"/><path d="M91.925 5.184h3.2l.69 4.16v6.746h-3.2V8.864l-.69-3.68Zm8.05-.287c1.034 0 1.916.21 2.644.632a4.043 4.043 0 0 1 1.668 1.764c.383.766.575 1.68.575 2.74v6.057h-3.201v-5.578c0-.983-.236-1.725-.709-2.223-.473-.51-1.163-.766-2.07-.766-.613 0-1.156.14-1.629.421-.46.269-.818.645-1.073 1.131-.243.486-.364 1.067-.364 1.744l-1.055-.556c.128-1.15.435-2.12.92-2.913.486-.792 1.1-1.399 1.84-1.82a4.874 4.874 0 0 1 2.454-.633Zm12.431 11.48c-1.355 0-2.543-.236-3.565-.709-1.022-.486-1.821-1.156-2.396-2.012-.575-.87-.862-1.872-.862-3.01 0-1.15.287-2.152.862-3.008.575-.87 1.374-1.54 2.396-2.013 1.022-.485 2.21-.728 3.565-.728 1.354 0 2.543.243 3.565.728 1.022.473 1.814 1.144 2.376 2.013.575.856.863 1.859.863 3.009 0 1.137-.288 2.14-.863 3.009-.562.856-1.354 1.526-2.376 2.012-1.022.473-2.211.71-3.565.71Zm0-2.434c.741 0 1.373-.134 1.897-.402a2.847 2.847 0 0 0 1.227-1.131c.294-.498.441-1.086.441-1.763 0-.69-.147-1.278-.441-1.764a2.813 2.813 0 0 0-1.227-1.15c-.524-.268-1.156-.402-1.897-.402-.728 0-1.361.134-1.898.402a2.936 2.936 0 0 0-1.245 1.15c-.281.486-.422 1.074-.422 1.764 0 .677.141 1.264.422 1.763.294.485.709.862 1.245 1.13.537.269 1.17.403 1.898.403Z" fill="currentColor"/></svg><svg fill="none" viewBox="0 0 21 18" id="favourites" xmlns="http://www.w3.org/2000/svg"><path d="M15.056 1.093a5.88 5.88 0 0 1 3.025.828c.896.54 1.593 1.307 2.005 2.203.412.897.52 1.884.31 2.836a4.78 4.78 0 0 1-1.491 2.513l-.648.589-.859.769L10.553 17l-6.846-6.169-.859-.768-.647-.59A4.944 4.944 0 0 1 .958 7.88a4.503 4.503 0 0 1-.457-1.903 4.487 4.487 0 0 1 .4-1.914 4.895 4.895 0 0 1 1.193-1.624 5.527 5.527 0 0 1 1.8-1.077A5.976 5.976 0 0 1 6.018 1a5.959 5.959 0 0 1 2.112.411A5.487 5.487 0 0 1 9.9 2.53l.653.589.654-.59c1.021-.919 2.405-1.435 3.848-1.435" fill="currentColor"/><path d="M15.056 1.093a5.88 5.88 0 0 1 3.025.828c.896.54 1.593 1.307 2.005 2.203.412.897.52 1.884.31 2.836a4.78 4.78 0 0 1-1.491 2.513l-.648.589-.859.769L10.553 17l-6.846-6.169-.859-.768-.647-.59A4.944 4.944 0 0 1 .958 7.88a4.503 4.503 0 0 1-.457-1.903 4.487 4.487 0 0 1 .4-1.914 4.895 4.895 0 0 1 1.193-1.624 5.527 5.527 0 0 1 1.8-1.077A5.976 5.976 0 0 1 6.018 1a5.959 5.959 0 0 1 2.112.411A5.487 5.487 0 0 1 9.9 2.53l.653.589.654-.59c1.021-.919 2.405-1.435 3.848-1.435" stroke="#000"/></svg><svg fill="none" viewBox="0 0 35 20" id="play" xmlns="http://www.w3.org/2000/svg"><path d="M35 10 8 20V0l27 10Z" fill="#fff"/></svg><svg fill="none" viewBox="0 0 11 30" id="slider-arrow-left" xmlns="http://www.w3.org/2000/svg"><path d="M10 .833 1.667 15 10 29.167" stroke="gray" stroke-width="1.667" stroke-linecap="round" stroke-linejoin="round"/></svg><svg fill="none" viewBox="0 0 11 30" id="slider-arrow-right" xmlns="http://www.w3.org/2000/svg"><path d="m1.176 1 8.236 14-8.236 14" stroke="gray" stroke-width="1.647" stroke-linecap="round" stroke-linejoin="round"/></svg><svg fill="none" viewBox="0 0 2 22" id="slider-line" xmlns="http://www.w3.org/2000/svg"><path d="M1 1v20" stroke="gray" stroke-width="1.667" stroke-linecap="round"/></svg><svg fill="none" viewBox="0 0 12 6" id="stepper-down" xmlns="http://www.w3.org/2000/svg"><path d="m1 1.5 5 3.333L11 1.5" stroke="#B3B3B3" stroke-width="2" stroke-linecap="round" stroke-linejoin="round"/></svg><svg fill="none" viewBox="0 0 12 6" id="stepper-up" xmlns="http://www.w3.org/2000/svg"><path d="m1 4.5 5-3.333L11 4.5" stroke="#B3B3B3" stroke-width="2" stroke-linecap="round" stroke-linejoin="round"/></svg><svg fill="none" viewBox="0 0 20 21" id="tg" xmlns="http://www.w3.org/2000/svg"><path fill-rule="evenodd" clip-rule="evenodd" d="M17.874 1.617A1.488 1.488 0 0 1 19.92 3.23l-2.25 13.647c-.219 1.317-1.663 2.072-2.87 1.416-1.01-.549-2.51-1.394-3.86-2.276-.674-.441-2.74-1.855-2.487-2.86.219-.86 3.69-4.093 5.675-6.015.779-.755.424-1.19-.496-.496-2.284 1.724-5.95 4.346-7.163 5.085-1.07.65-1.627.761-2.294.65-1.216-.202-2.344-.515-3.264-.897C-.333 10.968-.273 9.257.91 8.759l16.964-7.142Z" fill="currentColor"/></svg><svg fill="none" viewBox="0 0 104 89" id="tg-bg" xmlns="http://www.w3.org/2000/svg"><path fill-rule="evenodd" clip-rule="evenodd" d="M93.227.609a7.75 7.75 0 0 1 7.817 1.06 7.773 7.773 0 0 1 2.853 7.368l-11.736 71.31c-1.138 6.878-8.672 10.822-14.97 7.396-5.267-2.867-13.09-7.283-20.128-11.89-3.518-2.308-14.297-9.694-12.972-14.95 1.138-4.494 19.249-21.382 29.598-31.422 4.062-3.945 2.21-6.22-2.587-2.592-11.912 9.009-31.037 22.709-37.36 26.565-5.578 3.4-8.486 3.981-11.963 3.4-6.344-1.057-12.228-2.695-17.03-4.69-6.488-2.696-6.173-11.632-.005-14.234L93.227.609Z" fill="currentColor"/></svg><svg fill="none" viewBox="0 0 30 30" id="view" xmlns="http://www.w3.org/2000/svg"><path d="M28.17 16.787a.92.92 0 0 0 .464.534.96.96 0 0 0 .714.058.912.912 0 0 0 .608-1.147l-.001-.002C29.888 16.035 26.131 5 14.999 5 3.87 5 .112 16.035.046 16.23l-.001.002a.906.906 0 0 0 .607 1.147.94.94 0 0 0 1.178-.592c.134-.409 3.382-9.96 13.17-9.96s13.036 9.551 13.17 9.96Zm-18.045.636c0-1.26.513-2.468 1.428-3.359A4.941 4.941 0 0 1 15 12.674c1.293 0 2.533.5 3.447 1.39a4.689 4.689 0 0 1 1.428 3.36 4.686 4.686 0 0 1-1.428 3.358A4.941 4.941 0 0 1 15 22.173c-1.293 0-2.533-.5-3.447-1.391a4.689 4.689 0 0 1-1.428-3.359ZM15 10.846a6.84 6.84 0 0 0-4.773 1.927 6.492 6.492 0 0 0-1.977 4.65c0 1.744.71 3.417 1.977 4.65A6.842 6.842 0 0 0 15 24c1.79 0 3.507-.693 4.773-1.926a6.493 6.493 0 0 0 1.977-4.65 6.493 6.493 0 0 0-1.977-4.651A6.842 6.842 0 0 0 15 10.846Z" fill="currentColor"/></svg><svg fill="none" viewBox="0 0 30 30" id="view-photo" xmlns="http://www.w3.org/2000/svg"><path d="M2.31 14.143h3.717c.196 0 .358.062.487.186.127.124.19.28.19.47 0 .19-.063.347-.19.472a.663.663 0 0 1-.485.188H1.234c-.35 0-.643-.116-.88-.346A1.151 1.151 0 0 1 0 14.256V9.59a.63.63 0 0 1 .191-.472.665.665 0 0 1 .483-.186.67.67 0 0 1 .485.186.628.628 0 0 1 .193.472v3.617l4.512-4.391a.692.692 0 0 1 .484-.192.65.65 0 0 1 .474.193.624.624 0 0 1 .198.462.653.653 0 0 1-.198.47l-4.511 4.393ZM14.53 2.25l-4.512 4.39a.692.692 0 0 1-.484.193.652.652 0 0 1-.475-.192.619.619 0 0 1-.198-.462.65.65 0 0 1 .198-.471l4.512-4.392H9.852a.667.667 0 0 1-.485-.186.63.63 0 0 1-.19-.472.63.63 0 0 1 .19-.471A.672.672 0 0 1 9.852 0h4.793c.35 0 .645.115.881.345.237.232.355.517.355.858v4.666c0 .19-.064.347-.191.472a.664.664 0 0 1-.483.186.675.675 0 0 1-.487-.186.615.615 0 0 1-.191-.472V2.251ZM19.025 30c-.514 0-.997-.092-1.45-.277a3.866 3.866 0 0 1-1.241-.825l-6.846-6.643a.805.805 0 0 1-.286-.682.967.967 0 0 1 .334-.684c.231-.207.494-.34.787-.4a2.04 2.04 0 0 1 .889.019l4.259 1.022V9.16a.71.71 0 0 1 .22-.53.75.75 0 0 1 .545-.214.75.75 0 0 1 .544.215.71.71 0 0 1 .22.53v12.796c0 .4-.164.72-.494.962-.33.24-.688.308-1.073.203l-3.995-1.057 5.988 5.8c.206.2.45.359.73.474.282.115.572.173.87.173h5.621c1.076 0 1.982-.359 2.72-1.075.736-.717 1.104-1.599 1.104-2.647v-5.954a.71.71 0 0 1 .22-.53.75.75 0 0 1 .544-.214.75.75 0 0 1 .545.214.71.71 0 0 1 .22.53v5.954c0 1.447-.52 2.677-1.561 3.69-1.043 1.013-2.305 1.52-3.787 1.52h-5.627Zm1.533-16.374c.217 0 .399.072.546.214.146.143.22.32.218.53v5.21a.707.707 0 0 1-.22.53.76.76 0 0 1-.546.215.74.74 0 0 1-.763-.745v-5.21a.71.71 0 0 1 .22-.53.75.75 0 0 1 .545-.214Zm4.354 1.489a.75.75 0 0 1 .544.214c.147.143.22.32.219.53v3.721a.707.707 0 0 1-.22.53.752.752 0 0 1-.546.215.747.747 0 0 1-.545-.215.713.713 0 0 1-.218-.53v-3.72a.71.71 0 0 1 .22-.53.752.752 0 0 1 .546-.214Z" fill="#fff"/></svg><svg fill="none" viewBox="0 0 20 21" id="wt" xmlns="http://www.w3.org/2000/svg"><g clip-path="url(#sa)"><path d="M16.83 3.41a9.506 9.506 0 0 0-3.113-2.16 9.262 9.262 0 0 0-3.68-.75C4.746.5.433 4.95.433 10.41c0 1.75.446 3.45 1.28 4.95L.354 20.5l5.088-1.38a9.374 9.374 0 0 0 4.594 1.21c5.291 0 9.604-4.45 9.604-9.91 0-2.65-.998-5.14-2.81-7.01Zm-6.793 15.24a7.82 7.82 0 0 1-4.07-1.15l-.291-.18-3.024.82.805-3.04-.194-.31a8.455 8.455 0 0 1-1.221-4.38c0-4.54 3.586-8.24 7.985-8.24 2.133 0 4.139.86 5.64 2.42a8.2 8.2 0 0 1 1.735 2.673 8.41 8.41 0 0 1 .601 3.157c.02 4.54-3.566 8.23-7.966 8.23Zm4.38-6.16c-.242-.12-1.424-.72-1.637-.81-.223-.08-.378-.12-.543.12-.165.25-.62.81-.756.97-.136.17-.281.19-.523.06-.242-.12-1.018-.39-1.929-1.23-.717-.66-1.192-1.47-1.337-1.72-.136-.25-.02-.38.106-.51.107-.11.243-.29.359-.43.116-.14.165-.25.242-.41a.472.472 0 0 0-.02-.43c-.057-.12-.542-1.34-.736-1.84-.193-.48-.397-.42-.542-.43h-.466a.859.859 0 0 0-.64.31c-.212.25-.833.85-.833 2.07 0 1.22.863 2.4.98 2.56.115.17 1.695 2.67 4.099 3.74.571.26 1.017.41 1.366.52.572.19 1.095.16 1.512.1.465-.07 1.425-.6 1.618-1.18.204-.58.204-1.07.136-1.18-.068-.11-.213-.16-.455-.28Z" fill="currentColor"/></g><defs><clipPath id="sa"><path fill="#fff" transform="translate(0 .5)" d="M0 0h20v20H0z"/></clipPath></defs></svg></svg>